<?xml version="1.0" encoding="iso-8859-1"?>
<!-- Generator: Adobe Illustrator 16.0.0, SVG Export Plug-In . SVG Version: 6.00 Build 0)  -->
<!DOCTYPE svg PUBLIC "-//W3C//DTD SVG 1.1//EN" "http://www.w3.org/Graphics/SVG/1.1/DTD/svg11.dtd">
<svg version="1.1" id="logo" xmlns="http://www.w3.org/2000/svg" xmlns:xlink="http://www.w3.org/1999/xlink" x="0px" y="0px"
	 width="900px" height="190px" viewBox="0 0 900 190" style="enable-background:new 0 0 900 190;" xml:space="preserve">
<g>
	<polygon style="fill:#ffffff;" points="45.927,101.064 111.495,0 72.484,0 27.179,70.927 27.179,130.573 78.981,189.662 
		122.063,189.662 	"/>
	<path style="fill:#ffffff;" d="M141.029,0h37.122c11.199,0,21,1.671,29.39,5.011c8.406,3.346,15.357,7.722,20.867,13.14
		c5.51,5.417,9.659,11.612,12.463,18.566c2.8,6.951,4.201,14.041,4.201,21.267c0,7.582-1.492,15.081-4.472,22.484
		c-2.98,7.41-7.452,14.051-13.416,19.918c-5.957,5.871-13.408,10.565-22.352,14.088c-8.938,3.523-19.369,5.282-31.292,5.282v69.905
		h-32.512V0z M173.541,29.804v58.792h1.9c6.679,0,12.415-0.81,17.199-2.434c4.784-1.632,8.716-3.795,11.789-6.504
		c3.07-2.709,5.325-5.869,6.775-9.482c1.439-3.616,2.172-7.316,2.172-11.108c0-3.975-0.733-7.727-2.172-11.246
		c-1.45-3.526-3.75-6.641-6.913-9.351c-3.161-2.709-7.226-4.827-12.191-6.367c-4.968-1.529-10.881-2.301-17.749-2.301H173.541z"/>
	<path style="fill:#ffffff;" d="M280.565,0h32.514v69.907c11.921,0,22.352,1.756,31.291,5.279
		c8.943,3.526,16.395,8.219,22.353,14.088c5.965,5.869,10.437,12.51,13.415,19.919c2.98,7.403,4.471,14.901,4.471,22.485
		c0,7.223-1.401,14.313-4.201,21.268c-2.804,6.955-6.953,13.146-12.461,18.563c-5.509,5.42-12.462,9.796-20.868,13.14
		c-8.391,3.34-18.193,5.013-29.391,5.013h-37.122V0z M313.889,159.858c6.869,0,12.781-0.774,17.75-2.303
		c4.963-1.541,9.028-3.657,12.192-6.366c3.16-2.708,5.459-5.827,6.911-9.35c1.439-3.52,2.171-7.273,2.171-11.245
		c0-3.791-0.732-7.494-2.171-11.109c-1.452-3.615-3.706-6.772-6.775-9.482c-3.074-2.71-7.005-4.875-11.79-6.503
		c-4.784-1.624-10.52-2.435-17.197-2.435h-1.901v58.794H313.889z"/>
	<path style="fill:#ffffff;" d="M676.145,0h32.516v69.907c11.923,0,22.352,1.756,31.291,5.279
		c8.942,3.526,16.393,8.219,22.353,14.088c5.963,5.869,10.434,12.51,13.414,19.919c2.979,7.403,4.474,14.901,4.474,22.485
		c0,7.223-1.404,14.313-4.204,21.268c-2.805,6.955-6.955,13.146-12.462,18.563c-5.509,5.42-12.463,9.796-20.865,13.14
		c-8.395,3.34-18.194,5.013-29.392,5.013h-37.124V0z M709.469,159.858c6.869,0,12.777-0.774,17.748-2.303
		c4.963-1.541,9.028-3.657,12.193-6.366c3.157-2.708,5.462-5.827,6.912-9.35c1.438-3.52,2.167-7.273,2.167-11.245
		c0-3.791-0.729-7.494-2.167-11.109c-1.45-3.615-3.703-6.772-6.774-9.482c-3.076-2.71-7.008-4.875-11.791-6.503
		c-4.782-1.624-10.52-2.435-17.198-2.435h-1.898v58.794H709.469z"/>
	<rect x="416.033" style="fill:#ffffff;" width="32.514" height="189.662"/>
	<polygon style="fill:#ffffff;" points="610.276,0.026 472.929,189.026 513.033,189.026 610.499,55.871 610.499,189.026 
		642.499,189.026 642.499,0.026 	"/>
	<path style="fill:#ffffff;" d="M874.333,88.559c-6.15-0.092-11.499-0.872-15.982-2.396c-4.792-1.632-8.72-3.795-11.789-6.504
		c-3.069-2.709-5.327-5.869-6.775-9.482c-1.448-3.616-2.169-7.316-2.169-11.108c0-3.975,0.721-7.727,2.169-11.246
		c1.448-3.526,3.747-6.641,6.914-9.351c3.152-2.709,7.218-4.827,12.19-6.367c4.388-1.35,9.564-2.075,15.442-2.231V0h-1.49
		c-11.2,0-20.999,1.671-29.393,5.011c-8.404,3.346-15.356,7.722-20.867,13.14c-5.51,5.417-9.666,11.612-12.461,18.566
		c-2.806,6.951-4.202,14.041-4.202,21.267c0,5.784,0.814,11.425,2.438,16.934c1.627,5.51,4.065,10.748,7.318,15.712
		c3.249,4.976,7.267,9.441,12.057,13.414c4.785,3.975,10.431,7.314,16.935,10.022l-44.438,75.597h36.578l37.524-63.869V88.559z"/>
</g>
</svg>
